PathFileType	4	(X/Y/Z)	E:\3-PhD\Data\MocapData\ElaboratedData\015\pre\dynamicElaborations\RunA1\RunA1.trc
DataRate	CameraRate	NumFrames	NumMarkers	Units	OrigDataRate	DataStartFrame
200	200	4	61	mm	200	363
Frame#	Time	FHD			LBHD			RBHD			C7			T10			CLAV			LSHO			LUUPA			LMUPA			LDUPA			LLEP			LMEP			LRAD			LUL			LRFIN			RSHO			RUPA1			RMUPA			RDUPA			RLEP			RMEP			RRAD			RUL			RUFIN			LASI			RASI			USACR			LSACR			RSACR			LTHI1			LTHI2			LTHI3			LTHI4			LLFC			LMFC			LTIB1			LTIB2			LTIB3			LTIB4			LLMAL			LMMAL			LHEE			LMT1			LMT5			LMT2			RTHI			RTHI2			RTHI3			RTHI4			RLFC			RMFC			RTIB1			RTIB2			RTIB3			RTIB4			RLMAL			RMMAL			RHEE			RMT1			RMT2			RMT5		
		X1	Y1	Z1	X2	Y2	Z2	X3	Y3	Z3	X4	Y4	Z4	X5	Y5	Z5	X6	Y6	Z6	X7	Y7	Z7	X8	Y8	Z8	X9	Y9	Z9	X10	Y10	Z10	X11	Y11	Z11	X12	Y12	Z12	X13	Y13	Z13	X14	Y14	Z14	X15	Y15	Z15	X16	Y16	Z16	X17	Y17	Z17	X18	Y18	Z18	X19	Y19	Z19	X20	Y20	Z20	X21	Y21	Z21	X22	Y22	Z22	X23	Y23	Z23	X24	Y24	Z24	X25	Y25	Z25	X26	Y26	Z26	X27	Y27	Z27	X28	Y28	Z28	X29	Y29	Z29	X30	Y30	Z30	X31	Y31	Z31	X32	Y32	Z32	X33	Y33	Z33	X34	Y34	Z34	X35	Y35	Z35	X36	Y36	Z36	X37	Y37	Z37	X38	Y38	Z38	X39	Y39	Z39	X40	Y40	Z40	X41	Y41	Z41	X42	Y42	Z42	X43	Y43	Z43	X44	Y44	Z44	X45	Y45	Z45	X46	Y46	Z46	X47	Y47	Z47	X48	Y48	Z48	X49	Y49	Z49	X50	Y50	Z50	X51	Y51	Z51	X52	Y52	Z52	X53	Y53	Z53	X54	Y54	Z54	X55	Y55	Z55	X56	Y56	Z56	X57	Y57	Z57	X58	Y58	Z58	X59	Y59	Z59	X60	Y60	Z60	X61	Y61	Z61	

411	2.050000	-2211.492116	1490.150493	206.252345	-2343.033687	1547.832680	193.124487	-2355.137786	1547.022048	319.365523	-2487.259783	1450.897600	232.765010	-2648.718733	1152.239353	191.670098	-2379.660277	1322.712795	246.149895	-2389.732814	1435.493878	80.817420	-2368.861725	1268.772179	-16.830696	-2341.043545	1233.903490	3.811789	-2360.231777	1208.221816	-46.960341	-2377.966067	1125.113017	-76.549870	-2429.785815	1095.509289	7.286924	-2190.709203	1125.736807	107.204279	-2234.599212	1182.939107	128.531697	-2162.253639	1219.452517	160.701144	-2437.472983	1420.454285	415.397319	-2565.677098	1405.749203	522.773744	-2576.984802	1363.080772	542.936400	-2621.996452	1396.793095	564.204159	-2709.346084	1355.153016	611.663901	-2747.946998	1356.822212	542.232236	-2658.926318	1084.502960	589.777118	-2713.793212	1069.116777	638.430609	-2621.564285	1020.594565	628.813721	-2556.170539	947.924398	77.587327	-2557.015885	973.518036	316.623456	-2709.516578	1056.753456	195.782350	-2723.996603	1025.278570	171.434256	-2726.180094	1031.707185	226.729462	-2760.784517	706.769842	31.267063	-2767.155907	623.242072	41.114862	-2725.390235	602.675217	47.010732	-2814.544138	589.948936	62.197212	-2872.656985	513.521808	79.751721	-2868.629095	518.649460	209.417510	-2946.568821	355.445346	112.154950	-3023.034616	370.919538	69.365274	-2996.890521	340.799557	85.072678	-3052.449866	281.256396	113.975840	-3186.857555	240.466124	97.609785	-3167.928401	233.905124	183.571901	-3261.449690	270.548875	147.982624	-3155.365964	92.183873	180.717655	-3200.900342	92.062063	81.869329	-3157.015520	88.816098	132.654535	-2514.828385	874.331198	391.787541	-2453.329164	875.724412	374.017486	-2443.253035	898.777060	350.333466	-2400.026836	808.875302	379.450567	-2293.919208	662.316820	336.957736	-2293.897363	672.963637	217.218328	-2293.386429	455.436638	291.950641	-2379.467112	400.162987	334.783806	-2337.367680	385.337997	317.396609	-2343.383029	337.993020	286.249027	-2409.250571	281.870214	311.672506	-2401.703011	289.875302	228.555980	-2496.610397	231.072291	260.075941	-2270.871234	218.373018	256.983029	-2277.963272	221.608254	298.803225	-2322.052762	195.505357	349.732028	
412	2.055000	-2183.286976	1491.998293	208.517990	-2314.770813	1549.638832	195.059275	-2327.305085	1548.652932	321.160891	-2458.954964	1452.778110	234.206067	-2620.894765	1155.112033	190.869289	-2351.699642	1324.752298	247.685109	-2362.016153	1437.694045	82.328309	-2342.974858	1271.464892	-17.153072	-2315.899926	1235.649781	2.898959	-2335.571119	1211.255285	-48.199034	-2355.165235	1128.924524	-78.887718	-2407.925023	1098.995085	4.491324	-2168.915832	1123.065241	105.827016	-2211.638969	1180.775777	127.621806	-2139.063186	1215.394787	161.017277	-2410.000636	1421.187086	417.174209	-2538.659324	1404.075803	524.515220	-2550.322127	1360.941469	543.309556	-2595.344090	1394.196313	565.219098	-2683.149591	1351.790603	610.717471	-2721.024625	1354.768243	541.250209	-2630.867498	1081.830489	585.583026	-2686.103528	1065.313113	633.460304	-2593.359705	1017.725724	624.113805	-2527.143913	949.401876	79.300318	-2530.599989	975.825799	317.491550	-2681.519013	1059.876702	194.266622	-2695.742347	1028.329033	169.659778	-2698.550015	1034.681403	224.937142	-2729.711407	707.489846	31.428671	-2735.330734	624.108122	41.514829	-2693.702812	603.572351	47.900840	-2782.690398	590.268741	61.978275	-2840.847509	514.264146	79.896239	-2837.595973	519.264820	208.987861	-2921.255761	359.395160	112.355857	-2996.690322	377.359320	69.093959	-2971.972977	346.510391	85.418560	-3030.043481	289.800407	114.596132	-3165.391656	254.594378	97.473928	-3147.373235	248.243793	183.465244	-3238.139910	290.116199	146.606878	-3142.794971	105.705603	183.874690	-3187.284686	107.189138	84.809676	-3143.919067	101.054273	135.884275	-2487.251685	875.065440	391.908453	-2425.691777	874.692452	373.953967	-2415.128995	896.857954	349.765109	-2374.121062	806.681225	380.405319	-2271.078719	656.268145	338.750244	-2269.967860	666.413136	219.552917	-2261.316677	448.562067	293.493003	-2345.524643	388.970414	334.023663	-2302.451345	376.200242	317.604225	-2305.476773	328.815839	286.040933	-2368.314311	269.496692	309.911089	-2360.589933	279.077704	226.954675	-2453.163891	215.626275	257.227670	-2226.700813	213.100320	255.136316	-2234.146439	215.249812	296.873111	-2277.295261	186.260491	347.163714	
413	2.060000	-2154.918679	1493.705532	210.612754	-2286.367873	1551.244888	196.857037	-2299.328054	1550.067126	322.828130	-2430.397253	1454.570902	235.650454	-2593.246524	1158.228272	190.239740	-2323.685228	1326.599279	249.064975	-2334.198464	1439.564920	83.599428	-2317.674803	1273.753508	-17.792158	-2291.396490	1236.993168	1.582635	-2311.710679	1213.872658	-49.715223	-2333.301367	1132.441071	-81.249140	-2386.953792	1102.446041	1.685200	-2147.845297	1118.651260	103.873207	-2188.990221	1176.987878	126.391993	-2115.946542	1209.091676	160.997420	-2382.350009	1421.606926	418.935684	-2511.665881	1401.646956	526.224476	-2523.437257	1358.035087	543.685735	-2568.674788	1390.589521	566.158662	-2656.742816	1347.089936	609.828002	-2694.008086	1351.162185	540.277651	-2601.808094	1078.147993	580.937015	-2657.327347	1060.308646	628.037562	-2563.970920	1013.912325	618.836819	-2498.405778	950.964754	80.979749	-2504.351740	978.014424	318.504594	-2653.647554	1063.133542	193.020913	-2667.596763	1031.509900	168.152779	-2671.003176	1037.757275	223.428773	-2698.181118	707.372932	31.688010	-2702.666172	624.110994	41.957744	-2661.064585	603.872472	48.665733	-2749.790494	589.521193	61.794525	-2807.531855	513.878851	79.975034	-2804.774675	518.437192	208.506599	-2894.750143	362.844671	112.600172	-2968.986790	383.462996	68.806876	-2945.843502	351.876543	85.835125	-3006.492328	298.350225	115.390897	-3142.475853	269.203735	97.238894	-3125.555198	263.470610	183.323555	-3213.332458	309.933423	144.733677	-3128.602408	120.963921	187.201288	-3171.696900	123.554045	87.843380	-3129.140503	114.875683	139.332882	-2459.826007	875.069465	392.295867	-2398.198987	872.776631	374.274271	-2387.042003	894.048561	349.642476	-2348.614553	803.468030	381.691363	-2249.230919	648.998622	340.724842	-2246.652682	658.597675	221.897476	-2230.659404	441.033927	295.203817	-2312.973364	377.467237	333.404361	-2269.074775	366.676289	317.947796	-2269.268455	319.407699	285.952592	-2329.099907	257.198687	308.302684	-2321.289322	268.478444	225.576525	-2411.609077	200.968262	254.584158	-2184.874201	207.376574	253.321527	-2192.585321	208.292688	294.917476	-2234.788674	176.597317	344.561924	
414	2.065000	-2126.426899	1495.197581	212.517250	-2257.854116	1552.616014	198.518315	-2271.207774	1551.238273	324.375238	-2401.609778	1456.263622	237.105143	-2565.757247	1161.515521	189.766864	-2295.640711	1328.244629	250.313229	-2306.291767	1441.076022	84.646494	-2292.969006	1275.663950	-18.732519	-2267.525145	1238.006931	-0.114647	-2288.630876	1216.090114	-51.466432	-2312.319560	1135.677074	-83.593821	-2366.814733	1105.893497	-1.077206	-2127.513184	1112.581194	101.298212	-2166.673097	1171.621685	124.808758	-2092.957842	1200.596369	160.541826	-2354.535728	1421.700733	420.680386	-2484.702998	1398.499473	527.867415	-2496.325996	1354.405627	544.061621	-2541.971460	1386.021761	567.004182	-2630.083988	1341.113666	608.989630	-2666.857411	1346.093261	539.302428	-2571.741342	1073.526047	575.845762	-2627.436857	1054.182651	622.182705	-2533.383818	1009.227416	612.974562	-2469.895040	952.612361	82.599357	-2478.230109	980.101513	319.620834	-2625.894920	1066.413970	192.047351	-2639.549170	1034.715035	166.925563	-2643.533952	1040.832964	222.211887	-2666.274854	706.477508	32.030558	-2669.320158	623.308702	42.427630	-2627.632901	603.614266	49.319365	-2716.027452	587.822494	61.667769	-2772.943471	512.536139	79.994822	-2770.451957	516.474008	207.993158	-2867.004094	365.935256	112.919109	-2939.898106	389.340956	68.555966	-2918.435350	357.022002	86.316719	-2981.652604	306.961135	116.316780	-3117.975946	284.215961	96.938001	-3102.258730	279.404465	183.167090	-3186.849642	329.886670	142.488341	-3112.646147	137.626737	190.561768	-3154.109103	140.943926	90.880665	-3112.610181	130.032096	142.858271	-2432.672370	874.284180	392.946029	-2370.978654	869.981853	375.011721	-2359.124207	890.393786	350.042808	-2323.592271	799.282665	383.281235	-2228.236024	640.669184	342.841333	-2223.953616	649.735907	224.219038	-2201.429085	432.993049	296.966219	-2281.834380	365.798847	332.924275	-2237.260529	356.880818	318.362047	-2234.849407	309.870962	285.926964	-2291.808364	245.062809	306.848217	-2283.974291	258.100868	224.430578	-2372.186686	187.119386	252.150737	-2145.502418	201.184772	251.623073	-2153.411262	200.767867	293.008423	-2194.708721	166.605251	342.012177	
